<?xml version="1.0" encoding="utf-8"?>
<!-- Generator: Adobe Illustrator 24.1.0, SVG Export Plug-In . SVG Version: 6.00 Build 0)  -->
<svg version="1.1" id="Livello_1" xmlns="http://www.w3.org/2000/svg" xmlns:xlink="http://www.w3.org/1999/xlink" x="0px" y="0px"
	 viewBox="0 0 2048 2048" style="enable-background:new 0 0 2048 2048;" xml:space="preserve">
<g>
	<path d="M377.9,15.1c-22.6,2.7-43.3,7.3-64,14.7C220.3,62.7,162,140.2,143.2,256.6c-14,86.3-4.4,188.4,25.7,277.5
		c10.4,30.7,32.6,75.6,51.6,104.4c13.4,20.7,15,23.6,12.8,27.1c-18.6,29.6-69.4,128.6-93.3,181.8c-76.9,171.3-111.6,302.5-116,438.6
		c-3.6,111.6,20.5,213.1,72.3,305.6c47.9,85.5,113.5,159.4,198.2,223.8c67.5,51.2,141.3,92.4,228.3,127.3
		c168.3,67.7,355,98.2,555.5,91.3c102-3.7,169.1-11.8,259-31.9c165.4-37.1,309.8-100.4,419.4-184.1c50.4-38.5,105.2-91.7,139.3-135
		c71.5-90.5,113.1-188.9,125.5-296.1c3.5-29,3.8-96.5,0.8-124.2c-7.1-66.1-32.6-146-65.2-204.2c-24.2-43.1-51-79.3-89.7-121.3
		c-12.8-13.9-26.8-30.6-31.2-37.1c-9.4-13.9-25.1-47.2-34.9-73.9c-62.5-169-131.3-281.8-234.8-384.7c-19.6-19.5-24.9-25.9-24.2-29
		c6.3-29.2,10.5-77.9,10.5-124.7c0-54.5-4.8-95.1-16.3-140.4c-18.4-71.6-49.3-111.6-98.1-127.8c-15.5-5.2-19.2-5.6-44.7-5.6
		c-23,0-30.3,0.8-42.6,4.3c-73,21.3-142.4,78.3-204.3,167.9c-9.6,13.7-18.6,26.7-19.9,28.6c-2.3,3.3-3.6,3.3-24.5,0.4
		c-56.7-7.5-125.9-8.3-185.9-1.9c-21.7,2.3-83.6,11.8-97.9,14.9c-1.3,0.4-9.6-8.5-18.4-19.7c-18-23-52.1-58.4-72.8-76
		c-87.8-74.5-207.6-120.1-313-119.1C402.2,13.3,385.7,14.1,377.9,15.1z M476.8,84.3c54.8,9.3,117.5,34.6,164.7,66.5
		c34.5,23.2,54.8,41,85.9,74.5c33.2,35.6,55,66.7,78.6,112c7.5,14.5,16.3,29.2,19.6,32.7c21.1,22.4,59.6,1.7,53.9-29
		c-0.8-3.7-6.3-17.2-12.7-30l-11.3-23.2l10-1.9c73.6-15.1,176.5-15.9,258.2-1.9c79.5,13.5,134.9,31.9,206.8,68.5
		c42.9,21.9,75.7,42.4,114.2,71.6c103.9,78.5,188.2,182.8,244.4,301.7c16.1,34,26.1,58.6,24.3,60.1c-0.6,0.8-5.8-0.6-11.1-2.9
		c-7.9-3.5-12.7-4.3-23.2-3.7l-13.2,0.6l-3.5-7.9c-4.4-10.1-10.5-14.3-19.7-14.3c-9.8,0-18.4,7.7-20.9,19.1
		c-3.3,15.1,3.3,49.1,15.5,80.3c13.2,33.7,22.8,50.9,69,122c43.5,67.3,58.5,93,71.1,121.8c5.9,13.7,10.7,25.3,10.4,25.7
		c-0.2,0.2-5.9-2.1-12.8-5.4c-6.7-3.3-20.9-8.1-31.4-11c-18-5-21.3-5.2-64-5.2c-39.3,0-47.5,0.4-64.2,4.3
		c-69.8,15.3-106.8,43.5-116.2,88.8c-4.6,23.2,0.6,55.7,13,80.8c22.8,45.4,74,89.9,120.2,104.6l11.1,3.5l-1,9.1
		c-1.3,11-10.5,33.5-18.6,45.3c-18.2,26.7-51.6,46.8-90.1,54.3c-27.2,5.4-71.7,2.7-103.5-6.2c-62.1-17.4-125.5-55.7-172.1-103.9
		l-12.3-12.4l8.2-4.6c16.9-9.5,22.4-28,12.1-40.4c-7.5-8.9-15.1-12.2-25.3-10.8c-10.5,1.4-36.2,13.5-52.1,24.4
		c-16.3,11.2-40.6,35-51.6,50.3c-8.1,11.4-8.8,13.5-8.8,23.6c0,10.2,0.6,11.8,6.7,18c7.3,7.3,16.9,10.2,26.1,7.9
		c2.9-0.8,12.1-8.1,20.3-16.2l15-14.7l24.5,24.2c28.9,28.8,43.3,40.6,74.8,61.3c94.3,62.1,198.4,81,283.5,51.8
		c17.6-6,42-18.8,56.4-29.6c6.3-4.6,11.9-8.3,12.5-8.3c0.6,0,5.9,3.1,11.9,6.8c12.5,7.5,36.6,14.5,51,14.5
		c47.5-0.2,98.1-39.3,127.7-98.6c49.5-99.4,48.5-230.3-2.7-350.8c-12.5-29.2-29.9-60-58.8-104l-11.1-17l1.7-12
		c1-6.8,2.1-15.5,2.3-19.7l0.6-7.5l12.8,17.2c7.1,9.5,25.5,31.5,41,49.1c52.5,59.6,75.1,94.8,100.2,156.3
		c24.7,60.9,33.5,108.3,33.5,181.2c0,52.6-2.7,76.6-13.2,118c-45.6,179.9-192.1,332.1-410.2,426c-195.1,84.1-414.2,115.8-648.8,94
		c-193.8-18-386.2-84.3-528.1-182.2c-67.1-46.2-137.4-116.8-178.6-179.3c-44.7-67.5-75.3-148.3-86.1-226.3
		c-4.6-33.7-4.8-106.8-0.2-145c15.9-132.1,59.4-263.4,144.3-434.6c14.6-29.6,40.3-78.3,42.2-80.6c1-1,2.5,0.2,28.8,22.4
		c28.6,24.6,42.4,29.8,57.5,22.6c14.2-6.8,20.3-22,15.1-37.7c-2.7-7.7-6.1-12-19.7-24.4c-59.8-53.8-98.9-106.4-121.9-164.6
		c-25.7-64.6-36.4-122-36.4-196.7c0-50.7,5.2-86.6,18.4-124.7c25.9-74.1,77.6-118,154.3-130.5C397.8,77.9,445.9,79.3,476.8,84.3z
		 M1423.5,84.3c13.8,6.6,27.2,20.3,35.1,36.2c17.8,35.6,29.1,102.1,29.1,170.4c0,27.8-2.9,75.8-4.8,77.6
		c-0.2,0.4-10.4-6.4-22.2-14.7c-79.2-55.7-163.5-95.9-245.5-117.4c-18.8-4.8-20.3-5.6-18.6-9.1c5.4-10.1,33.7-45.4,50.6-63
		c31.1-32.7,56.4-52.4,87.2-68.1c25.3-13,40.3-17.2,60.4-17.4C1409.8,78.7,1413.3,79.5,1423.5,84.3z M1720.4,832.9
		c9.2,17.2,7.1,32.9-4.6,32.9c-15.5,0-29.1-35.2-17.3-44.9C1705.2,815.5,1713.5,820.2,1720.4,832.9z M1814.9,1293.8
		c-1.7,38.7-13,82.4-28.8,111.6c-15,27.8-36.2,51.2-53.7,59.6c-14.4,6.8-31.4,5.2-40.8-3.7l-4-3.9l6.5-17.6
		c3.6-9.7,8.2-25.5,10.4-35c2.1-9.7,4.2-18.2,4.8-19.1c0.6-1,5.6-3.9,10.9-6.6c14.2-7.2,43.9-30.4,53.9-42.2
		c12.5-14.7,28.2-39.3,34.7-54c3.3-7.2,6.1-13,6.5-13C1815.6,1270,1815.4,1280.6,1814.9,1293.8z"/>
	<path d="M375.4,144.5c-18.4,2.9-26.1,5.6-32.8,11.6c-13,11.6-13.8,26.1-1.9,36.6c7.7,7,6.5,6.8,42.9,6c30.3-0.4,50.6,2.3,74,10.4
		c56.5,19.3,104.7,65,136.9,130c10.4,21.1,24.2,58.6,27.8,76c1.2,5.8,1,6.4-2.1,5.2c-2.1-0.8-14.4-1.9-27.6-2.5
		c-32.8-1.4-54.6,3.1-82.2,17c-16.7,8.3-22.6,12.6-35.7,25.7c-28.8,28.8-35.7,57.2-19.2,79.7c4.8,6.4,22,16.4,34.9,20.1l7.9,2.5
		l-16.3,18.6c-19.2,21.9-38.1,50.1-41,60.9c-5.2,19.3,7.7,36,27.6,36c10,0,17.8-6.8,35.1-29.8c19.2-25.5,28.2-35,55-57.6
		c11.3-9.7,21.9-19.9,23.4-23c3.6-7,3.6-17.8,0.2-24.8c-6.1-11.6-30.7-27.5-54.4-35l-10.4-3.3l6.3-5.2c25.9-22,66.3-26.5,110.2-12
		c11.7,3.9,23.6,7,26.5,7c6.1,0,17.8-4.6,22.8-9.3c5.9-5.4,10.9-17,10.9-25.5c0-14.5-14.6-71.7-27.2-106.4
		c-39.5-109.1-119.6-186-213.7-206C435.6,143.5,391.3,141.9,375.4,144.5z"/>
	<path d="M1080,803.9c-33.5,6.2-64.4,30.2-80.3,62.9c-10.5,21.9-13.2,35-13.2,65v26.3l-19.6,2.1c-21.7,2.5-28.9,5.2-34.1,13.2
		c-3.8,6-4.2,18-0.8,23.8c5.6,8.9,12.5,9.7,59.2,7.3c61.3-3.1,124.2,5.8,172.7,24.8c24,9.3,27.8,9.7,38.1,4.4
		c11.7-6,14.6-13,17.4-41.2c5.8-57.8-5.2-107.9-31.2-142.5c-10.2-13.3-28-29.4-39.7-35.4C1129,804.5,1101.1,800.3,1080,803.9z
		 M1148.2,855.8c20.3,15.1,14,47.8-10.5,54.3c-19.2,5.2-37.2-9.1-37.2-29.8C1100.5,855,1128.3,840.7,1148.2,855.8z"/>
</g>
</svg>
